<?xml version="1.0" encoding="UTF-8"?>
<!DOCTYPE svg PUBLIC "-//W3C//DTD SVG 1.1//EN" "http://www.w3.org/Graphics/SVG/1.1/DTD/svg11.dtd">
<svg xmlns="http://www.w3.org/2000/svg" version="1.1" width="2041px" height="2041px" style="shape-rendering:geometricPrecision; text-rendering:geometricPrecision; image-rendering:optimizeQuality; fill-rule:evenodd; clip-rule:evenodd" xmlns:xlink="http://www.w3.org/1999/xlink">
<g><path style="opacity:0.998" fill="#1d4ed8" d="M 975.5,-0.5 C 1005.17,-0.5 1034.83,-0.5 1064.5,-0.5C 1323.76,14.1769 1546.76,110.677 1733.5,289C 1922.58,478.196 2024.92,707.029 2040.5,975.5C 2040.5,1005.17 2040.5,1034.83 2040.5,1064.5C 2025.82,1323.76 1929.32,1546.76 1751,1733.5C 1561.8,1922.58 1332.97,2024.92 1064.5,2040.5C 1034.83,2040.5 1005.17,2040.5 975.5,2040.5C 716.237,2025.82 493.237,1929.32 306.5,1751C 117.416,1561.8 15.0822,1332.97 -0.5,1064.5C -0.5,1034.83 -0.5,1005.17 -0.5,975.5C 14.1766,716.237 110.677,493.237 289,306.5C 478.195,117.416 707.029,15.0823 975.5,-0.5 Z"/></g>
<g><path style="opacity:1" fill="#41e0f8" d="M 1277.5,338.5 C 1216.36,353.826 1156.69,373.659 1098.5,398C 1060.08,414.03 1022.08,431.03 984.5,449C 902.779,490.361 820.445,530.361 737.5,569C 690.895,589.97 642.895,606.97 593.5,620C 481.735,649.469 379.735,629.969 287.5,561.5C 281.46,556.126 275.126,551.126 268.5,546.5C 268.167,545.5 267.5,544.833 266.5,544.5C 266.167,544.5 265.833,544.5 265.5,544.5C 398.781,459.875 541.781,396.375 694.5,354C 886.59,302.621 1080.09,296.788 1275,336.5C 1276.38,336.684 1277.21,337.351 1277.5,338.5 Z"/></g>
<g><path style="opacity:1" fill="#255ff9" d="M 1277.5,338.5 C 1321.47,346.993 1364.81,357.993 1407.5,371.5C 1293.23,382.649 1182.23,408.483 1074.5,449C 985.579,483.793 897.579,520.793 810.5,560C 758.961,582.625 706.294,602.292 652.5,619C 603.507,634.249 553.34,642.415 502,643.5C 419.946,642.698 348.113,615.531 286.5,562C 286.728,561.601 287.062,561.435 287.5,561.5C 379.735,629.969 481.735,649.469 593.5,620C 642.895,606.97 690.895,589.97 737.5,569C 820.445,530.361 902.779,490.361 984.5,449C 1022.08,431.03 1060.08,414.03 1098.5,398C 1156.69,373.659 1216.36,353.826 1277.5,338.5 Z"/></g>
<g><path style="opacity:1" fill="#2a89f8" d="M 1407.5,371.5 C 1472.41,392.58 1535.75,417.58 1597.5,446.5C 1597.08,447.124 1596.42,447.457 1595.5,447.5C 1493.62,427.714 1391.28,425.214 1288.5,440C 1213.19,451.729 1139.19,469.063 1066.5,492C 1035.02,502.272 1003.68,512.938 972.5,524C 903.933,549.857 835.266,575.523 766.5,601C 719.587,617.639 671.92,631.639 623.5,643C 598.363,647.981 573.03,651.647 547.5,654C 458.124,661.754 378.457,638.088 308.5,583C 297.608,573.268 286.608,563.768 275.5,554.5C 273.167,551.833 270.833,549.167 268.5,546.5C 275.126,551.126 281.46,556.126 287.5,561.5C 287.062,561.435 286.728,561.601 286.5,562C 348.113,615.531 419.946,642.698 502,643.5C 553.34,642.415 603.507,634.249 652.5,619C 706.294,602.292 758.961,582.625 810.5,560C 897.579,520.793 985.579,483.793 1074.5,449C 1182.23,408.483 1293.23,382.649 1407.5,371.5 Z"/></g>
<g><path style="opacity:1" fill="#2fb5f9" d="M 1597.5,446.5 C 1640.94,467.051 1683.28,489.385 1724.5,513.5C 1559.38,476.202 1393.71,473.702 1227.5,506C 1153.12,520.928 1079.79,539.595 1007.5,562C 950.746,579.474 894.079,597.141 837.5,615C 776.889,633.828 715.223,648.495 652.5,659C 612.407,665.316 572.074,667.983 531.5,667C 430.072,665.099 344.739,627.599 275.5,554.5C 286.608,563.768 297.608,573.268 308.5,583C 378.457,638.088 458.124,661.754 547.5,654C 573.03,651.647 598.363,647.981 623.5,643C 671.92,631.639 719.587,617.639 766.5,601C 835.266,575.523 903.933,549.857 972.5,524C 1003.68,512.938 1035.02,502.272 1066.5,492C 1139.19,469.063 1213.19,451.729 1288.5,440C 1391.28,425.214 1493.62,427.714 1595.5,447.5C 1596.42,447.457 1597.08,447.124 1597.5,446.5 Z"/></g>
<g><path style="opacity:1" fill="#40e0f9" d="M 1724.5,513.5 C 1741.55,523.111 1758.39,533.111 1775,543.5C 1775.5,553.828 1775.67,564.161 1775.5,574.5C 1776.14,584.558 1775.47,594.225 1773.5,603.5C 1681.77,589.721 1589.77,587.888 1497.5,598C 1435.51,604.951 1374.17,615.618 1313.5,630C 1271.91,640.117 1230.57,651.117 1189.5,663C 1093.27,692.853 997.274,723.519 901.5,755C 842.693,773.618 783.027,788.952 722.5,801C 670.52,810.901 618.186,813.568 565.5,809C 485.234,800.118 418.067,765.952 364,706.5C 328.065,665.004 298.898,619.004 276.5,568.5C 273.89,562.947 271.557,557.281 269.5,551.5C 268.847,550.193 268.18,548.86 267.5,547.5C 267.624,546.893 267.957,546.56 268.5,546.5C 270.833,549.167 273.167,551.833 275.5,554.5C 344.739,627.599 430.072,665.099 531.5,667C 572.074,667.983 612.407,665.316 652.5,659C 715.223,648.495 776.889,633.828 837.5,615C 894.079,597.141 950.746,579.474 1007.5,562C 1079.79,539.595 1153.12,520.928 1227.5,506C 1393.71,473.702 1559.38,476.202 1724.5,513.5 Z"/></g>
<g><path style="opacity:1" fill="#2770f9" d="M 265.5,544.5 C 265.833,544.5 266.167,544.5 266.5,544.5C 266.438,549.076 267.105,553.409 268.5,557.5C 268.982,561.873 269.648,566.206 270.5,570.5C 269.662,570.842 269.328,571.508 269.5,572.5C 268.662,572.842 268.328,573.508 268.5,574.5C 267.681,571.695 267.181,568.695 267,565.5C 266.536,566.094 266.369,566.761 266.5,567.5C 266.167,567.5 265.833,567.5 265.5,567.5C 265.5,559.833 265.5,552.167 265.5,544.5 Z"/></g>
<g><path style="opacity:1" fill="#34aef9" d="M 266.5,544.5 C 267.5,544.833 268.167,545.5 268.5,546.5C 267.957,546.56 267.624,546.893 267.5,547.5C 268.18,548.86 268.847,550.193 269.5,551.5C 268.506,552.999 268.506,554.666 269.5,556.5C 268.833,556.5 268.5,556.833 268.5,557.5C 267.105,553.409 266.438,549.076 266.5,544.5 Z"/></g>
<g><path style="opacity:1" fill="#255ff8" d="M 268.5,574.5 C 268.275,584.046 268.942,593.379 270.5,602.5C 270.985,612.031 271.985,621.364 273.5,630.5C 276.664,666.528 281.331,702.195 287.5,737.5C 299.661,823.142 319.828,906.809 348,988.5C 372.076,1058.35 406.743,1122.01 452,1179.5C 508.402,1246.81 578.235,1294.98 661.5,1324C 711.098,1341.07 761.764,1354.07 813.5,1363C 894.577,1375.63 975.577,1388.63 1056.5,1402C 1147.64,1418.05 1235.64,1444.38 1320.5,1481C 1358.44,1498.63 1394.77,1518.79 1429.5,1541.5C 1412.48,1560.19 1394.81,1578.19 1376.5,1595.5C 1294.07,1534.45 1203.41,1488.95 1104.5,1459C 1056.74,1444.18 1008.41,1431.51 959.5,1421C 891.702,1407.2 824.035,1392.87 756.5,1378C 701.76,1365.53 648.76,1347.86 597.5,1325C 493.447,1276.28 416.613,1200.11 367,1096.5C 337.187,1032.06 315.187,965.06 301,895.5C 280.068,787.183 268.568,677.85 266.5,567.5C 266.369,566.761 266.536,566.094 267,565.5C 267.181,568.695 267.681,571.695 268.5,574.5 Z"/></g>
<g><path style="opacity:1" fill="#40e0f8" d="M 269.5,556.5 C 284.656,617.795 309.822,674.461 345,726.5C 395.031,794.462 461.864,835.962 545.5,851C 592.171,859.042 639.171,861.709 686.5,859C 745.87,855.537 804.87,848.87 863.5,839C 931.539,827.613 999.539,815.947 1067.5,804C 1136.56,793.024 1205.9,784.024 1275.5,777C 1358.51,769.793 1441.51,769.793 1524.5,777C 1588.74,783.223 1651.74,795.556 1713.5,814C 1729.16,819.277 1744.83,824.444 1760.5,829.5C 1748.9,921.164 1727.9,1010.5 1697.5,1097.5C 1608.4,1061.23 1515.73,1040.39 1419.5,1035C 1400.19,1033.63 1380.85,1032.63 1361.5,1032C 1318.83,1031.33 1276.17,1031.33 1233.5,1032C 1142.15,1035.67 1050.82,1039.67 959.5,1044C 879.647,1047.7 799.981,1045.37 720.5,1037C 660.463,1029.91 602.796,1014.24 547.5,990C 457.718,947.218 389.885,881.718 344,793.5C 308.588,722.763 284.088,648.43 270.5,570.5C 269.648,566.206 268.982,561.873 268.5,557.5C 268.5,556.833 268.833,556.5 269.5,556.5 Z"/></g>
<g><path style="opacity:1" fill="#2b77f9" d="M 269.5,551.5 C 271.557,557.281 273.89,562.947 276.5,568.5C 275.596,569.209 275.263,570.209 275.5,571.5C 273.899,566.368 271.899,561.368 269.5,556.5C 268.506,554.666 268.506,552.999 269.5,551.5 Z"/></g>
<g><path style="opacity:1" fill="#255ff8" d="M 276.5,568.5 C 298.898,619.004 328.065,665.004 364,706.5C 418.067,765.952 485.234,800.118 565.5,809C 618.186,813.568 670.52,810.901 722.5,801C 783.027,788.952 842.693,773.618 901.5,755C 997.274,723.519 1093.27,692.853 1189.5,663C 1230.57,651.117 1271.91,640.117 1313.5,630C 1374.17,615.618 1435.51,604.951 1497.5,598C 1589.77,587.888 1681.77,589.721 1773.5,603.5C 1773.84,604.338 1774.51,604.672 1775.5,604.5C 1775.49,630.172 1775.16,655.839 1774.5,681.5C 1773.78,681.918 1773.28,682.584 1773,683.5C 1675.48,660.708 1576.64,652.541 1476.5,659C 1418.4,662.637 1360.74,669.637 1303.5,680C 1232.56,693.317 1162.23,709.317 1092.5,728C 1024.93,746.611 957.267,764.945 889.5,783C 837.265,796.38 784.598,807.714 731.5,817C 681.117,825.252 630.45,827.919 579.5,825C 480.1,816.9 400.933,773.067 342,693.5C 315.414,655.333 293.247,614.667 275.5,571.5C 275.263,570.209 275.596,569.209 276.5,568.5 Z"/></g>
<g><path style="opacity:1" fill="#2a8af8" d="M 265.5,567.5 C 265.833,567.5 266.167,567.5 266.5,567.5C 268.568,677.85 280.068,787.183 301,895.5C 315.187,965.06 337.187,1032.06 367,1096.5C 416.613,1200.11 493.447,1276.28 597.5,1325C 648.76,1347.86 701.76,1365.53 756.5,1378C 824.035,1392.87 891.702,1407.2 959.5,1421C 1008.41,1431.51 1056.74,1444.18 1104.5,1459C 1203.41,1488.95 1294.07,1534.45 1376.5,1595.5C 1368.67,1604.16 1360.34,1612.33 1351.5,1620C 1341.29,1629.04 1330.96,1637.88 1320.5,1646.5C 1262.82,1598.46 1198.82,1560.29 1128.5,1532C 1089.62,1516.82 1050.29,1502.82 1010.5,1490C 931.244,1467.69 851.911,1445.69 772.5,1424C 702.596,1404.71 635.596,1378.37 571.5,1345C 474.658,1292.66 401.325,1217.49 351.5,1119.5C 321.408,1038.14 299.575,954.472 286,868.5C 270.247,768.631 263.414,668.297 265.5,567.5 Z"/></g>
<g><path style="opacity:1" fill="#255ff8" d="M 270.5,570.5 C 284.088,648.43 308.588,722.763 344,793.5C 389.885,881.718 457.718,947.218 547.5,990C 602.796,1014.24 660.463,1029.91 720.5,1037C 799.981,1045.37 879.647,1047.7 959.5,1044C 1050.82,1039.67 1142.15,1035.67 1233.5,1032C 1276.17,1031.33 1318.83,1031.33 1361.5,1032C 1380.85,1032.63 1400.19,1033.63 1419.5,1035C 1515.73,1040.39 1608.4,1061.23 1697.5,1097.5C 1689.15,1122.55 1679.82,1147.22 1669.5,1171.5C 1629.5,1150.51 1587.83,1133.34 1544.5,1120C 1476.73,1100.75 1407.73,1088.08 1337.5,1082C 1283.92,1077.68 1230.25,1075.02 1176.5,1074C 1094.83,1073.67 1013.17,1073.33 931.5,1073C 847.208,1073.13 763.542,1066.13 680.5,1052C 618.643,1041.05 560.31,1020.38 505.5,990C 425.543,942.704 366.71,876.538 329,791.5C 298.71,721.341 278.877,648.341 269.5,572.5C 269.328,571.508 269.662,570.842 270.5,570.5 Z"/></g>
<g><path style="opacity:1" fill="#5cc0f2" d="M 1775.5,574.5 C 1776.83,584.5 1776.83,594.5 1775.5,604.5C 1774.51,604.672 1773.84,604.338 1773.5,603.5C 1775.47,594.225 1776.14,584.558 1775.5,574.5 Z"/></g>
<g><path style="opacity:1" fill="#2fb6f9" d="M 269.5,556.5 C 271.899,561.368 273.899,566.368 275.5,571.5C 293.075,627.321 319.575,678.321 355,724.5C 408.087,788.972 476.254,826.805 559.5,838C 595.042,842.251 630.709,843.584 666.5,842C 719.201,838.073 771.534,831.406 823.5,822C 912.722,804.112 1001.72,785.112 1090.5,765C 1153.22,752.38 1216.22,741.38 1279.5,732C 1352.2,722.353 1425.2,718.02 1498.5,719C 1590.56,720.716 1680.56,734.883 1768.5,761.5C 1766.45,784.655 1763.78,807.322 1760.5,829.5C 1744.83,824.444 1729.16,819.277 1713.5,814C 1651.74,795.556 1588.74,783.223 1524.5,777C 1441.51,769.793 1358.51,769.793 1275.5,777C 1205.9,784.024 1136.56,793.024 1067.5,804C 999.539,815.947 931.539,827.613 863.5,839C 804.87,848.87 745.87,855.537 686.5,859C 639.171,861.709 592.171,859.042 545.5,851C 461.864,835.962 395.031,794.462 345,726.5C 309.822,674.461 284.656,617.795 269.5,556.5 Z"/></g>
<g><path style="opacity:1" fill="#2a8af9" d="M 269.5,572.5 C 278.877,648.341 298.71,721.341 329,791.5C 366.71,876.538 425.543,942.704 505.5,990C 560.31,1020.38 618.643,1041.05 680.5,1052C 763.542,1066.13 847.208,1073.13 931.5,1073C 1013.17,1073.33 1094.83,1073.67 1176.5,1074C 1230.25,1075.02 1283.92,1077.68 1337.5,1082C 1407.73,1088.08 1476.73,1100.75 1544.5,1120C 1587.83,1133.34 1629.5,1150.51 1669.5,1171.5C 1659.89,1195.38 1649.22,1218.71 1637.5,1241.5C 1577.01,1205.49 1512.67,1178.33 1444.5,1160C 1356.45,1137.99 1267.12,1123.99 1176.5,1118C 1076.85,1112.1 977.18,1106.43 877.5,1101C 803.022,1096.32 729.355,1085.98 656.5,1070C 598.977,1056.74 544.643,1035.4 493.5,1006C 419.6,960.435 364.434,898.268 328,819.5C 300.966,757.696 283.133,693.363 274.5,626.5C 273.549,617.091 272.216,609.091 270.5,602.5C 268.942,593.379 268.275,584.046 268.5,574.5C 268.328,573.508 268.662,572.842 269.5,572.5 Z"/></g>
<g><path style="opacity:1" fill="#2a8af9" d="M 275.5,571.5 C 293.247,614.667 315.414,655.333 342,693.5C 400.933,773.067 480.1,816.9 579.5,825C 630.45,827.919 681.117,825.252 731.5,817C 784.598,807.714 837.265,796.38 889.5,783C 957.267,764.945 1024.93,746.611 1092.5,728C 1162.23,709.317 1232.56,693.317 1303.5,680C 1360.74,669.637 1418.4,662.637 1476.5,659C 1576.64,652.541 1675.48,660.708 1773,683.5C 1773.28,682.584 1773.78,681.918 1774.5,681.5C 1772.77,708.326 1770.77,734.993 1768.5,761.5C 1680.56,734.883 1590.56,720.716 1498.5,719C 1425.2,718.02 1352.2,722.353 1279.5,732C 1216.22,741.38 1153.22,752.38 1090.5,765C 1001.72,785.112 912.722,804.112 823.5,822C 771.534,831.406 719.201,838.073 666.5,842C 630.709,843.584 595.042,842.251 559.5,838C 476.254,826.805 408.087,788.972 355,724.5C 319.575,678.321 293.075,627.321 275.5,571.5 Z"/></g>
<g><path style="opacity:1" fill="#2d9ff9" d="M 274.5,626.5 C 273.566,627.568 273.232,628.901 273.5,630.5C 271.985,621.364 270.985,612.031 270.5,602.5C 272.216,609.091 273.549,617.091 274.5,626.5 Z"/></g>
<g><path style="opacity:1" fill="#2fb6f9" d="M 274.5,626.5 C 283.133,693.363 300.966,757.696 328,819.5C 364.434,898.268 419.6,960.435 493.5,1006C 544.643,1035.4 598.977,1056.74 656.5,1070C 729.355,1085.98 803.022,1096.32 877.5,1101C 977.18,1106.43 1076.85,1112.1 1176.5,1118C 1267.12,1123.99 1356.45,1137.99 1444.5,1160C 1512.67,1178.33 1577.01,1205.49 1637.5,1241.5C 1627.85,1262.8 1617.18,1283.47 1605.5,1303.5C 1543.04,1262.11 1475.7,1230.61 1403.5,1209C 1320.98,1185.3 1236.98,1168.64 1151.5,1159C 1047.83,1148.27 944.165,1137.61 840.5,1127C 768.384,1118.7 697.384,1105.04 627.5,1086C 566.352,1068.42 509.685,1041.75 457.5,1006C 384.744,951.537 333.911,881.037 305,794.5C 298.523,775.068 292.856,755.401 288,735.5C 287.536,736.094 287.369,736.761 287.5,737.5C 281.331,702.195 276.664,666.528 273.5,630.5C 273.232,628.901 273.566,627.568 274.5,626.5 Z"/></g>
<g><path style="opacity:1" fill="#41e0f8" d="M 1605.5,1303.5 C 1557.03,1390.46 1498.37,1469.79 1429.5,1541.5C 1394.77,1518.79 1358.44,1498.63 1320.5,1481C 1235.64,1444.38 1147.64,1418.05 1056.5,1402C 975.577,1388.63 894.577,1375.63 813.5,1363C 761.764,1354.07 711.098,1341.07 661.5,1324C 578.235,1294.98 508.402,1246.81 452,1179.5C 406.743,1122.01 372.076,1058.35 348,988.5C 319.828,906.809 299.661,823.142 287.5,737.5C 287.369,736.761 287.536,736.094 288,735.5C 292.856,755.401 298.523,775.068 305,794.5C 333.911,881.037 384.744,951.537 457.5,1006C 509.685,1041.75 566.352,1068.42 627.5,1086C 697.384,1105.04 768.384,1118.7 840.5,1127C 944.165,1137.61 1047.83,1148.27 1151.5,1159C 1236.98,1168.64 1320.98,1185.3 1403.5,1209C 1475.7,1230.61 1543.04,1262.11 1605.5,1303.5 Z"/></g>
<g><path style="opacity:1" fill="#2fb6f8" d="M 351.5,1119.5 C 401.325,1217.49 474.658,1292.66 571.5,1345C 635.596,1378.37 702.596,1404.71 772.5,1424C 851.911,1445.69 931.244,1467.69 1010.5,1490C 1050.29,1502.82 1089.62,1516.82 1128.5,1532C 1198.82,1560.29 1262.82,1598.46 1320.5,1646.5C 1303.44,1661.89 1285.78,1676.56 1267.5,1690.5C 1207.77,1637.76 1141.11,1595.26 1067.5,1563C 1038.16,1550.16 1008.5,1538.16 978.5,1527C 885.818,1496.33 793.151,1465.66 700.5,1435C 637.809,1412.82 578.142,1384.49 521.5,1350C 480.07,1323.1 442.736,1291.26 409.5,1254.5C 387.151,1210.8 367.818,1165.8 351.5,1119.5 Z"/></g>
<g><path style="opacity:1" fill="#41e0f8" d="M 409.5,1254.5 C 442.736,1291.26 480.07,1323.1 521.5,1350C 578.142,1384.49 637.809,1412.82 700.5,1435C 793.151,1465.66 885.818,1496.33 978.5,1527C 1008.5,1538.16 1038.16,1550.16 1067.5,1563C 1141.11,1595.26 1207.77,1637.76 1267.5,1690.5C 1189.84,1750.86 1107.51,1804.53 1020.5,1851.5C 890.232,1782.39 771.232,1697.55 663.5,1597C 568.967,1506.19 490.133,1403.69 427,1289.5C 420.628,1278.09 414.795,1266.42 409.5,1254.5 Z"/></g>
</svg>
